<?xml version="1.0" encoding="UTF-8"?>
<svg xmlns="http://www.w3.org/2000/svg" xmlns:xlink="http://www.w3.org/1999/xlink" viewBox="0 0 96 96" width="96px" height="96px">
<g id="surface72443293">
<path style=" stroke:none;fill-rule:nonzero;fill:rgb(80.000001%,80.000001%,80.000001%);fill-opacity:1;" d="M 48 48.480469 C 47.734375 48.480469 47.519531 48.265625 47.519531 48 C 47.519531 47.734375 47.734375 47.519531 48 47.519531 C 48.265625 47.519531 48.480469 47.734375 48.480469 48 C 48.480469 48.265625 48.265625 48.480469 48 48.480469 Z M 48 48.480469 "/>
<path style=" stroke:none;fill-rule:nonzero;fill:rgb(78.431374%,90.196079%,78.823531%);fill-opacity:1;" d="M 92.800781 48 C 92.800781 72.742188 72.742188 92.800781 48 92.800781 C 23.257812 92.800781 3.199219 72.742188 3.199219 48 C 3.199219 23.257812 23.257812 3.199219 48 3.199219 C 72.742188 3.199219 92.800781 23.257812 92.800781 48 Z M 92.800781 48 "/>
<path style=" stroke:none;fill-rule:nonzero;fill:rgb(29.803923%,68.627453%,31.37255%);fill-opacity:1;" d="M 71.710938 26.914062 L 41.316406 57.34375 L 28.765625 44.832031 L 22.433594 51.167969 L 41.324219 70.015625 L 78.050781 33.246094 Z M 71.710938 26.914062 "/>
</g>
</svg>
